<svg version="1.1" xmlns="http://www.w3.org/2000/svg" style="display: block;" viewBox="0 0 2048 1143" width="2048" height="1143" preserveAspectRatio="none">
<path transform="translate(0,0)" fill="rgb(6,29,63)" d="M 382.087 509.063 C 429.76 502.183 473.977 535.272 480.823 582.95 C 487.669 630.629 454.548 674.822 406.864 681.633 C 359.23 688.437 315.092 655.357 308.254 607.728 C 301.415 560.099 334.462 515.937 382.087 509.063 z M 402.405 645.643 C 430.299 641.175 449.226 614.858 444.587 586.992 C 439.947 559.126 413.513 540.362 385.677 545.173 C 358.082 549.942 339.515 576.097 344.115 603.72 C 348.714 631.344 374.753 650.072 402.405 645.643 z"/>
<path transform="translate(0,0)" fill="rgb(252,93,2)" d="M 1480.84 465.321 C 1484.05 466.853 1512.4 486.812 1517.18 490.279 C 1545.61 510.889 1578.25 531.488 1605.55 553.021 L 1605.49 635.462 C 1605.49 651.493 1604.99 672.046 1606.27 687.643 C 1594.21 670.076 1578.43 651.124 1565.51 633.547 C 1552.02 616.666 1535.55 595.29 1523.19 577.735 C 1522.34 609.995 1523.48 644.271 1522.91 677.016 C 1508.93 676.913 1494.94 676.928 1480.96 677.061 C 1481.78 607.121 1480.89 535.435 1480.84 465.321 z"/>
<path transform="translate(0,0)" fill="rgb(252,93,2)" d="M 1740.7 465.886 L 1741.44 466.368 C 1742.96 468.51 1742.24 657.821 1742.39 677.076 C 1728.27 676.911 1714.15 676.909 1700.03 677.067 L 1699.96 578.34 C 1688.87 594.581 1672.98 614.278 1660.82 630.235 L 1617.71 686.925 C 1618.77 670.732 1618.34 651.232 1618.31 634.811 L 1618.14 552.51 C 1620.2 550.812 1622.48 549.325 1624.65 547.754 C 1662.93 519.976 1702.57 493.817 1740.7 465.886 z"/>
<path transform="translate(0,0)" fill="rgb(6,29,63)" d="M 1230.06 513.793 L 1268.8 513.753 C 1268.83 567.843 1269.3 622.787 1268.55 676.788 C 1259.19 677.253 1246.48 676.853 1236.85 676.846 C 1229.56 669.436 1214.01 649.626 1206.8 640.777 C 1190.19 620.376 1172.15 599.316 1156.17 578.587 C 1155.7 611.299 1156.52 644.02 1155.81 676.852 L 1118.05 676.852 C 1117.89 622.691 1117.52 567.963 1118.07 513.838 L 1150.27 513.845 C 1175.41 546.371 1204.39 578.827 1230.11 611.663 L 1230.06 513.793 z"/>
<path transform="translate(0,0)" fill="rgb(6,29,63)" d="M 1411.46 513.621 C 1424.26 513.879 1437.07 513.887 1449.87 513.645 L 1449.85 546.969 L 1450.01 588.274 C 1450.07 614.344 1451.46 639.423 1431.67 659.653 C 1404.44 687.498 1347.01 686.485 1320.03 659.481 C 1312.35 651.727 1306.81 642.117 1303.94 631.586 C 1299.9 616.507 1300.91 590.149 1300.93 573.737 L 1300.97 513.903 L 1340.28 513.823 L 1340.35 577.893 C 1340.28 606.881 1334.81 646.387 1375.5 647.024 C 1416.74 647.669 1411.49 608.085 1411.47 579.833 L 1411.46 513.621 z"/>
<path transform="translate(0,0)" fill="rgb(6,29,63)" d="M 943.854 511.358 C 949.36 510.889 954.888 510.745 960.411 510.927 C 986.316 511.719 1005.3 521.001 1022.89 539.591 L 997.689 563.23 C 985.769 551.286 973.79 543.527 956.475 543.559 C 887.286 543.688 888.145 649.63 958.678 647.072 C 976.492 646.426 985.861 639.326 997.54 626.824 C 1001.55 629.629 1018.37 645.184 1023.29 649.533 C 1006.71 667.523 995.173 674.823 970.217 678.884 C 890.433 691.865 835.841 609.969 883.554 543.344 C 897.271 524.19 920.248 514.354 943.854 511.358 z"/>
<path transform="translate(0,0)" fill="rgb(6,29,63)" d="M 654.332 513.748 L 778.746 513.715 L 778.805 544.554 L 693.57 544.583 C 693.648 558.335 693.828 572.101 693.378 585.845 C 702.531 585.872 765.093 584.798 768.476 586.962 L 768.676 591.75 C 768.86 599.969 768.645 608.871 768.604 617.146 L 693.626 617.211 C 693.694 637.109 693.638 657.007 693.46 676.904 L 654.444 676.846 C 655.145 660.363 654.446 638.356 654.439 621.519 L 654.332 513.748 z"/>
<path transform="translate(0,0)" fill="rgb(6,29,63)" d="M 508.231 513.558 C 521.134 514.212 537.704 513.758 550.816 513.762 L 631.698 513.646 L 631.899 544.548 L 547.2 544.583 L 547.067 585.735 C 557.016 585.877 616.905 584.675 621.518 586.944 L 621.895 589.75 C 622.039 598.782 621.907 608.135 621.902 617.196 L 547.143 617.208 C 547.295 637.095 547.229 656.984 546.946 676.869 L 508.246 676.887 L 508.231 513.558 z"/>
<path transform="translate(0,0)" fill="rgb(6,29,63)" d="M 801.163 513.754 C 814.233 513.929 827.306 513.878 840.375 513.6 C 841.838 565.683 840.595 624.176 840.47 676.711 C 830.791 677.465 811.672 676.91 801.297 676.907 C 802.139 658.029 801.448 634.312 801.444 615.034 C 801.543 581.274 801.449 547.513 801.163 513.754 z"/>
<path transform="translate(0,0)" fill="rgb(6,29,63)" d="M 1044.37 513.616 C 1057.28 513.81 1070.19 513.798 1083.11 513.579 L 1083.05 676.884 L 1044.47 676.881 L 1044.37 513.616 z"/>
<path transform="translate(0,0)" fill="rgb(252,93,2)" d="M 1642.55 505.249 C 1664.15 478.976 1687.1 453.694 1708.91 427.596 C 1707.97 443.408 1708.92 458.583 1708.36 473.992 C 1693.69 484.756 1666.92 504.295 1651.87 513.548 C 1638.56 523.533 1624.31 533.217 1610.61 542.752 C 1619.51 531.218 1632.83 516.591 1642.55 505.249 z"/>
<path transform="translate(0,0)" fill="rgb(252,93,2)" d="M 1514.7 427.134 C 1536.21 455.284 1569.37 487.443 1589.33 514.993 C 1589.37 518.687 1589.97 519.702 1591.68 522.775 L 1591.14 524.147 C 1588.64 524.376 1588.23 524.329 1585.77 523.823 C 1562.67 507.189 1537.62 490.737 1515.11 473.935 L 1514.7 427.134 z"/>
<path transform="translate(0,0)" fill="rgb(252,93,2)" fill-opacity="0.964706" d="M 1589.33 514.993 C 1595.29 521.234 1606.25 534.163 1611.16 541.267 C 1602.89 536.494 1593.64 529.486 1585.77 523.823 C 1588.23 524.329 1588.64 524.376 1591.14 524.147 L 1591.68 522.775 C 1589.97 519.702 1589.37 518.687 1589.33 514.993 z"/>
</svg>